<svg width="89" height="89" viewBox="0 0 89 89" fill="none" xmlns="http://www.w3.org/2000/svg">
<path d="M70.4583 70.4584H18.5417V29.6667H70.4583M59.3333 3.70837V11.125H29.6667V3.70837H22.25V11.125H18.5417C14.4254 11.125 11.125 14.4255 11.125 18.5417V70.4584C11.125 72.4254 11.9064 74.3119 13.2973 75.7027C14.6882 77.0936 16.5746 77.875 18.5417 77.875H70.4583C72.4254 77.875 74.3118 77.0936 75.7027 75.7027C77.0936 74.3119 77.875 72.4254 77.875 70.4584V18.5417C77.875 16.5747 77.0936 14.6882 75.7027 13.2973C74.3118 11.9064 72.4254 11.125 70.4583 11.125H66.75V3.70837M63.0417 44.5H44.5V63.0417H63.0417V44.5Z" fill="#F8F2F4"/>
</svg>
