<svg width="37" height="37" viewBox="0 0 37 37" fill="none" xmlns="http://www.w3.org/2000/svg">
<path d="M29.2917 29.2916H7.70833V12.3333H29.2917M24.6667 1.54163V4.62496H12.3333V1.54163H9.25V4.62496H7.70833C5.99708 4.62496 4.625 5.99704 4.625 7.70829V29.2916C4.625 30.1094 4.94985 30.8936 5.52809 31.4719C6.10632 32.0501 6.89058 32.375 7.70833 32.375H29.2917C30.1094 32.375 30.8937 32.0501 31.4719 31.4719C32.0501 30.8936 32.375 30.1094 32.375 29.2916V7.70829C32.375 6.89054 32.0501 6.10628 31.4719 5.52805C30.8937 4.94981 30.1094 4.62496 29.2917 4.62496H27.75V1.54163M26.2083 18.5H18.5V26.2083H26.2083V18.5Z" fill="#8A817C"/>
</svg>
