<svg width="24" height="24" viewBox="0 0 24 24" fill="none" xmlns="http://www.w3.org/2000/svg">
<path d="M7.50005 8.5H16.5001M7.50005 12.5H13.0001M22.0001 10.5C22.0001 9.73 21.9861 8.977 21.9601 8.25C21.8771 5.877 21.8351 4.69 20.8701 3.717C19.9051 2.745 18.6841 2.693 16.2441 2.588C14.8302 2.52864 13.4152 2.4993 12.0001 2.5C10.5201 2.5 9.09505 2.53 7.75605 2.588C5.31605 2.693 4.09605 2.745 3.13005 3.718C2.16505 4.69 2.12305 5.877 2.04005 8.25C1.9873 9.74953 1.9873 11.2505 2.04005 12.75C2.12305 15.123 2.16505 16.31 3.13005 17.283C4.09505 18.255 5.31605 18.307 7.75605 18.412C8.49072 18.4433 9.24905 18.4667 10.0311 18.482C10.7711 18.496 11.1421 18.502 11.4681 18.627C11.7941 18.752 12.0681 18.985 12.6161 19.455L14.7951 21.325C14.9011 21.4159 15.031 21.4744 15.1693 21.4937C15.3076 21.513 15.4486 21.4921 15.5754 21.4337C15.7023 21.3753 15.8097 21.2817 15.885 21.1641C15.9602 21.0464 16.0002 20.9097 16.0001 20.77V18.422L16.2441 18.412C18.6841 18.307 19.9041 18.255 20.8701 17.282C21.8351 16.31 21.8771 15.123 21.9601 12.75C21.9861 12.023 22.0001 11.27 22.0001 10.5Z" stroke="black" stroke-width="1.5" stroke-linecap="round" stroke-linejoin="round"/>
</svg>
