<svg width="24" height="24" viewBox="0 0 24 24" fill="none" xmlns="http://www.w3.org/2000/svg">
<path d="M2.05007 13H7.52707C7.69819 16.1669 8.70762 19.2314 10.4521 21.88C8.26682 21.537 6.25686 20.4794 4.73648 18.8728C3.2161 17.2661 2.27204 15.2008 2.05007 13ZM2.04907 11C2.27078 8.79913 3.21561 6.73377 4.7358 5.12691C6.256 3.52004 8.26585 2.46227 10.4511 2.119C8.70662 4.76761 7.69719 7.83215 7.52607 10.999L2.04907 11ZM21.9491 11H16.4721C16.3011 7.83281 15.2917 4.7679 13.5471 2.119C15.7323 2.46202 17.7423 3.51956 19.2627 5.12624C20.783 6.73293 21.7281 8.79816 21.9501 10.999M21.9501 12.999C21.7282 15.1997 20.7832 17.2648 19.2631 18.8715C17.7429 20.4782 15.7331 21.5358 13.5481 21.879C15.2924 19.2307 16.3018 16.1665 16.4731 13L21.9501 12.999ZM9.53007 13H14.4701C14.3058 15.6996 13.4557 18.3126 12.0001 20.592C10.5445 18.3126 9.69432 15.6996 9.53007 13ZM9.53007 11C9.69432 8.30045 10.5445 5.68741 12.0001 3.408C13.4557 5.68741 14.3058 8.30045 14.4701 11H9.53007Z" fill="#F8F2F4"/>
</svg>
