<svg width="39" height="42" viewBox="0 0 39 42" fill="none" xmlns="http://www.w3.org/2000/svg">
<g filter="url(#filter0_d_13_72)">
<path d="M5.64033 11.5779C6.92358 9.02418 8.89143 6.87744 11.3241 5.37741C13.7569 3.87738 16.5587 3.08312 19.4167 3.08331C23.5715 3.08331 27.0618 4.6111 29.7304 7.09935L25.3105 11.5209C23.7118 9.99306 21.6798 9.21452 19.4167 9.21452C15.4006 9.21452 12.0013 11.9279 10.791 15.5708C10.4827 16.4958 10.307 17.4825 10.307 18.5C10.307 19.5175 10.4827 20.5041 10.791 21.4291C12.0028 25.0736 15.4006 27.7854 19.4167 27.7854C21.4902 27.7854 23.2554 27.2381 24.6368 26.3131C25.4375 25.7859 26.1231 25.1017 26.652 24.302C27.1809 23.5023 27.5422 22.6037 27.7139 21.6604H19.4167V15.6972H33.9361C34.118 16.7055 34.2167 17.7569 34.2167 18.8499C34.2167 23.5459 32.5362 27.4987 29.6194 30.1812C27.0695 32.5369 23.5792 33.9166 19.4167 33.9166C17.3919 33.9175 15.3868 33.5192 13.516 32.7448C11.6452 31.9703 9.94536 30.8348 8.51363 29.403C7.0819 27.9713 5.94635 26.2714 5.17187 24.4006C4.3974 22.5298 3.99919 20.5248 4 18.5C4 16.0117 4.59508 13.6591 5.64033 11.5779Z" fill="#6B150F"/>
</g>
<defs>
<filter id="filter0_d_13_72" x="-3.08333" y="0" width="45" height="45" filterUnits="userSpaceOnUse" color-interpolation-filters="sRGB">
<feFlood flood-opacity="0" result="BackgroundImageFix"/>
<feColorMatrix in="SourceAlpha" type="matrix" values="0 0 0 0 0 0 0 0 0 0 0 0 0 0 0 0 0 0 127 0" result="hardAlpha"/>
<feOffset dy="4"/>
<feGaussianBlur stdDeviation="2"/>
<feComposite in2="hardAlpha" operator="out"/>
<feColorMatrix type="matrix" values="0 0 0 0 0.419608 0 0 0 0 0.0823529 0 0 0 0 0.0588235 0 0 0 0.25 0"/>
<feBlend mode="normal" in2="BackgroundImageFix" result="effect1_dropShadow_13_72"/>
<feBlend mode="normal" in="SourceGraphic" in2="effect1_dropShadow_13_72" result="shape"/>
</filter>
</defs>
</svg>
