<svg width="22" height="22" viewBox="0 0 22 22" fill="none" xmlns="http://www.w3.org/2000/svg">
<path d="M18.3423 21.0925C19.8611 21.0925 21.0923 19.8613 21.0923 18.3425C21.0923 16.8237 19.8611 15.5925 18.3423 15.5925C16.8235 15.5925 15.5923 16.8237 15.5923 18.3425C15.5923 19.8613 16.8235 21.0925 18.3423 21.0925Z" fill="black"/>
<path d="M16.4998 2.75003H6.26067C6.04443 2.13841 5.61894 1.62293 5.0594 1.2947C4.49985 0.96646 3.84229 0.846598 3.20292 0.956297C2.56354 1.066 1.98354 1.39819 1.56541 1.89417C1.14728 2.39015 0.917946 3.01798 0.917946 3.66669C0.917946 4.31541 1.14728 4.94323 1.56541 5.43921C1.98354 5.93519 2.56354 6.26739 3.20292 6.37709C3.84229 6.48679 4.49985 6.36693 5.0594 6.03869C5.61894 5.71045 6.04443 5.19497 6.26067 4.58336H16.4998C17.2292 4.58336 17.9287 4.87309 18.4444 5.38882C18.9601 5.90454 19.2498 6.60401 19.2498 7.33336C19.2498 8.0627 18.9601 8.76218 18.4444 9.2779C17.9287 9.79363 17.2292 10.0834 16.4998 10.0834H13.594C13.4013 9.55247 13.0498 9.09378 12.5874 8.76963C12.1249 8.44548 11.5738 8.27159 11.009 8.27159C10.4442 8.27159 9.89315 8.44548 9.43066 8.76963C8.96816 9.09378 8.61669 9.55247 8.424 10.0834H5.49984C4.28426 10.0834 3.11847 10.5662 2.25893 11.4258C1.39939 12.2853 0.916504 13.4511 0.916504 14.6667C0.916504 15.8823 1.39939 17.0481 2.25893 17.9076C3.11847 18.7671 4.28426 19.25 5.49984 19.25H10.9998V22L14.6665 18.3334L10.9998 14.6667V17.4167H5.49984C4.77049 17.4167 4.07102 17.127 3.55529 16.6112C3.03957 16.0955 2.74984 15.396 2.74984 14.6667C2.74984 13.9373 3.03957 13.2379 3.55529 12.7221C4.07102 12.2064 4.77049 11.9167 5.49984 11.9167H8.43317C8.62765 12.4445 8.9793 12.9 9.44071 13.2217C9.90212 13.5434 10.4511 13.7159 11.0136 13.7159C11.5761 13.7159 12.1251 13.5434 12.5865 13.2217C13.0479 12.9 13.3995 12.4445 13.594 11.9167H16.4998C17.7154 11.9167 18.8812 11.4338 19.7407 10.5743C20.6003 9.71472 21.0832 8.54893 21.0832 7.33336C21.0832 6.11778 20.6003 4.95199 19.7407 4.09245C18.8812 3.23291 17.7154 2.75003 16.4998 2.75003Z" fill="black"/>
</svg>
