<svg width="31" height="31" viewBox="0 0 31 31" fill="none" xmlns="http://www.w3.org/2000/svg">
<path d="M25.8462 29.7212C27.9863 29.7212 29.7212 27.9863 29.7212 25.8462C29.7212 23.7061 27.9863 21.9712 25.8462 21.9712C23.7061 21.9712 21.9712 23.7061 21.9712 25.8462C21.9712 27.9863 23.7061 29.7212 25.8462 29.7212Z" fill="#8A817C"/>
<path d="M23.2501 3.87509H8.82217C8.51747 3.01327 7.91791 2.28692 7.12946 1.8244C6.34101 1.36188 5.41444 1.19299 4.51351 1.34756C3.61258 1.50214 2.7953 1.97023 2.20611 2.66911C1.61693 3.36799 1.29378 4.25266 1.29378 5.16676C1.29378 6.08085 1.61693 6.96552 2.20611 7.6644C2.7953 8.36328 3.61258 8.83137 4.51351 8.98595C5.41444 9.14053 6.34101 8.97163 7.12946 8.50911C7.91791 8.0466 8.51747 7.32024 8.82217 6.45842H23.2501C24.2778 6.45842 25.2634 6.86668 25.9901 7.59338C26.7168 8.32009 27.1251 9.30571 27.1251 10.3334C27.1251 11.3611 26.7168 12.3468 25.9901 13.0735C25.2634 13.8002 24.2778 14.2084 23.2501 14.2084H19.1555C18.884 13.4604 18.3887 12.814 17.737 12.3573C17.0853 11.9005 16.3088 11.6555 15.513 11.6555C14.7172 11.6555 13.9407 11.9005 13.289 12.3573C12.6373 12.814 12.142 13.4604 11.8705 14.2084H7.75008C6.03723 14.2084 4.39452 14.8889 3.18335 16.1C1.97218 17.3112 1.29175 18.9539 1.29175 20.6668C1.29175 22.3796 1.97218 24.0223 3.18335 25.2335C4.39452 26.4447 6.03723 27.1251 7.75008 27.1251H15.5001V31.0001L20.6667 25.8334L15.5001 20.6668V24.5418H7.75008C6.72237 24.5418 5.73675 24.1335 5.01004 23.4068C4.28334 22.6801 3.87508 21.6945 3.87508 20.6668C3.87508 19.639 4.28334 18.6534 5.01004 17.9267C5.73675 17.2 6.72237 16.7918 7.75008 16.7918H11.8834C12.1574 17.5355 12.653 18.1773 13.3031 18.6306C13.9533 19.084 14.7268 19.327 15.5195 19.327C16.3121 19.327 17.0856 19.084 17.7358 18.6306C18.386 18.1773 18.8815 17.5355 19.1555 16.7918H23.2501C24.9629 16.7918 26.6056 16.1113 27.8168 14.9002C29.028 13.689 29.7084 12.0463 29.7084 10.3334C29.7084 8.62057 29.028 6.97786 27.8168 5.76669C26.6056 4.55552 24.9629 3.87509 23.2501 3.87509Z" fill="#8A817C"/>
</svg>
