<svg width="22" height="22" viewBox="0 0 22 22" fill="none" xmlns="http://www.w3.org/2000/svg">
<path d="M18.3425 21.0925C19.8613 21.0925 21.0925 19.8613 21.0925 18.3425C21.0925 16.8237 19.8613 15.5925 18.3425 15.5925C16.8237 15.5925 15.5925 16.8237 15.5925 18.3425C15.5925 19.8613 16.8237 21.0925 18.3425 21.0925Z" fill="#6B150F"/>
<path d="M16.5001 2.75H6.26092C6.04468 2.13838 5.61918 1.6229 5.05964 1.29467C4.5001 0.966429 3.84253 0.846567 3.20316 0.956266C2.56379 1.06596 1.98378 1.39816 1.56565 1.89414C1.14752 2.39012 0.91819 3.01795 0.91819 3.66666C0.91819 4.31538 1.14752 4.9432 1.56565 5.43918C1.98378 5.93516 2.56379 6.26736 3.20316 6.37706C3.84253 6.48676 4.5001 6.3669 5.05964 6.03866C5.61918 5.71042 6.04468 5.19494 6.26092 4.58333H16.5001C17.2294 4.58333 17.9289 4.87306 18.4446 5.38878C18.9604 5.90451 19.2501 6.60398 19.2501 7.33333C19.2501 8.06267 18.9604 8.76215 18.4446 9.27787C17.9289 9.7936 17.2294 10.0833 16.5001 10.0833H13.5942C13.4016 9.55244 13.0501 9.09375 12.5876 8.7696C12.1251 8.44545 11.574 8.27156 11.0092 8.27156C10.4445 8.27156 9.89339 8.44545 9.4309 8.7696C8.96841 9.09375 8.61694 9.55244 8.42425 10.0833H5.50008C4.28451 10.0833 3.11872 10.5662 2.25918 11.4258C1.39963 12.2853 0.916748 13.4511 0.916748 14.6667C0.916748 15.8822 1.39963 17.048 2.25918 17.9076C3.11872 18.7671 4.28451 19.25 5.50008 19.25H11.0001V22L14.6667 18.3333L11.0001 14.6667V17.4167H5.50008C4.77074 17.4167 4.07126 17.1269 3.55554 16.6112C3.03981 16.0955 2.75008 15.396 2.75008 14.6667C2.75008 13.9373 3.03981 13.2378 3.55554 12.7221C4.07126 12.2064 4.77074 11.9167 5.50008 11.9167H8.43342C8.62789 12.4445 8.97954 12.9 9.44095 13.2217C9.90236 13.5434 10.4513 13.7159 11.0138 13.7159C11.5763 13.7159 12.1253 13.5434 12.5867 13.2217C13.0481 12.9 13.3998 12.4445 13.5942 11.9167H16.5001C17.7157 11.9167 18.8814 11.4338 19.741 10.5742C20.6005 9.71469 21.0834 8.5489 21.0834 7.33333C21.0834 6.11775 20.6005 4.95196 19.741 4.09242C18.8814 3.23288 17.7157 2.75 16.5001 2.75Z" fill="#6B150F"/>
</svg>
