<svg width="31" height="31" viewBox="0 0 31 31" fill="none" xmlns="http://www.w3.org/2000/svg">
<path d="M25.8462 29.7212C27.9863 29.7212 29.7212 27.9863 29.7212 25.8462C29.7212 23.7061 27.9863 21.9712 25.8462 21.9712C23.7061 21.9712 21.9712 23.7061 21.9712 25.8462C21.9712 27.9863 23.7061 29.7212 25.8462 29.7212Z" fill="#D52B1E"/>
<path d="M23.2498 3.87497H8.82192C8.51722 3.01315 7.91767 2.28679 7.12922 1.82428C6.34077 1.36176 5.4142 1.19286 4.51327 1.34744C3.61233 1.50201 2.79505 1.97011 2.20587 2.66899C1.61668 3.36787 1.29354 4.25254 1.29354 5.16663C1.29354 6.08073 1.61668 6.9654 2.20587 7.66428C2.79505 8.36316 3.61233 8.83125 4.51327 8.98583C5.4142 9.1404 6.34077 8.97151 7.12922 8.50899C7.91767 8.04647 8.51722 7.32012 8.82192 6.4583H23.2498C24.2776 6.4583 25.2632 6.86656 25.9899 7.59326C26.7166 8.31997 27.1248 9.30559 27.1248 10.3333C27.1248 11.361 26.7166 12.3466 25.9899 13.0733C25.2632 13.8 24.2776 14.2083 23.2498 14.2083H19.1553C18.8837 13.4602 18.3885 12.8139 17.7368 12.3571C17.0851 11.9004 16.3086 11.6554 15.5128 11.6554C14.7169 11.6554 13.9404 11.9004 13.2887 12.3571C12.637 12.8139 12.1418 13.4602 11.8703 14.2083H7.74984C6.03698 14.2083 4.39428 14.8887 3.18311 16.0999C1.97193 17.3111 1.2915 18.9538 1.2915 20.6666C1.2915 22.3795 1.97193 24.0222 3.18311 25.2334C4.39428 26.4445 6.03698 27.125 7.74984 27.125H15.4998V31L20.6665 25.8333L15.4998 20.6666V24.5416H7.74984C6.72212 24.5416 5.7365 24.1334 5.0098 23.4067C4.2831 22.68 3.87484 21.6943 3.87484 20.6666C3.87484 19.6389 4.2831 18.6533 5.0098 17.9266C5.7365 17.1999 6.72212 16.7916 7.74984 16.7916H11.8832C12.1572 17.5354 12.6527 18.1772 13.3029 18.6305C13.9531 19.0839 14.7266 19.3269 15.5192 19.3269C16.3118 19.3269 17.0854 19.0839 17.7355 18.6305C18.3857 18.1772 18.8812 17.5354 19.1553 16.7916H23.2498C24.9627 16.7916 26.6054 16.1112 27.8166 14.9C29.0277 13.6889 29.7082 12.0462 29.7082 10.3333C29.7082 8.62044 29.0277 6.97774 27.8166 5.76657C26.6054 4.5554 24.9627 3.87497 23.2498 3.87497Z" fill="#D52B1E"/>
</svg>
