<svg width="102" height="102" viewBox="0 0 102 102" fill="none" xmlns="http://www.w3.org/2000/svg">
<path d="M34.9776 79.7725C33.7876 79.7725 32.7817 79.3617 31.9601 78.54C31.1384 77.7184 30.7276 76.7125 30.7276 75.5225V67.0225H42.5001V53.21C39.8027 53.7767 37.0388 53.6903 34.2083 52.9508C31.3778 52.2113 29.0417 50.9122 27.2001 49.0535V43.0738H21.1651L9.32031 31.2205C11.7626 28.9992 14.5336 27.3374 17.6333 26.2353C20.733 25.1331 23.9219 24.5834 27.2001 24.5863C29.9314 24.5863 32.5806 24.973 35.1476 25.7465C37.7146 26.52 40.1654 27.7327 42.5001 29.3845V21.5773H85.0001V71.2683C85.0001 73.6681 84.1826 75.684 82.5478 77.316C80.913 78.948 78.8971 79.7669 76.5001 79.7725H34.9776ZM46.7501 67.0225H72.2501V71.2725C72.2501 72.4739 72.6581 73.4825 73.4741 74.2985C74.2901 75.1145 75.2987 75.5211 76.5001 75.5183C77.7014 75.5154 78.7115 75.1089 79.5303 74.2985C80.3491 73.4882 80.7557 72.4781 80.7501 71.2683V25.8273H46.7501V32.6273L70.1251 56.0023V59.0113H67.1161L54.1876 46.0785L51.7863 48.484C50.9562 49.3114 50.1416 50.0055 49.3426 50.5665C48.5436 51.1275 47.6794 51.6205 46.7501 52.0455V67.0225ZM22.9841 38.8195H31.4501V47.1368C32.9007 48.0321 34.2494 48.6413 35.4961 48.9643C36.7427 49.2873 37.9441 49.4474 39.1001 49.4445C41.0551 49.4445 42.8245 49.1144 44.4083 48.4543C45.9921 47.7941 47.4754 46.7727 48.8581 45.39L51.1786 43.0695L43.7581 35.649C41.4857 33.3767 38.9386 31.6724 36.1166 30.5363C33.2946 29.4001 30.3224 28.8334 27.2001 28.8363C25.1317 28.8363 23.1186 29.1054 21.1608 29.6438C19.2058 30.1821 17.4534 30.8819 15.9036 31.7433L22.9841 38.8195Z" fill="#F8F2F4"/>
</svg>
