<svg width="30" height="30" viewBox="0 0 30 30" fill="none" xmlns="http://www.w3.org/2000/svg">
<path d="M10.2875 23.4625C9.93746 23.4625 9.64163 23.3417 9.39996 23.1C9.15829 22.8583 9.03746 22.5625 9.03746 22.2125V19.7125H12.5V15.65C11.7066 15.8167 10.8937 15.7913 10.0612 15.5738C9.22871 15.3563 8.54163 14.9742 7.99996 14.4275V12.6688H6.22496L2.74121 9.1825C3.45954 8.52917 4.27454 8.04042 5.18621 7.71625C6.09788 7.39209 7.03579 7.23042 7.99996 7.23125C8.80329 7.23125 9.58246 7.345 10.3375 7.5725C11.0925 7.8 11.8133 8.15667 12.5 8.6425V6.34625H25V20.9613C25 21.6671 24.7595 22.26 24.2787 22.74C23.7979 23.22 23.205 23.4608 22.5 23.4625H10.2875ZM13.75 19.7125H21.25V20.9625C21.25 21.3158 21.37 21.6125 21.61 21.8525C21.85 22.0925 22.1466 22.2121 22.5 22.2113C22.8533 22.2104 23.1504 22.0908 23.3912 21.8525C23.632 21.6142 23.7516 21.3171 23.75 20.9613V7.59625H13.75V9.59625L20.625 16.4713V17.3563H19.74L15.9375 13.5525L15.2312 14.26C14.987 14.5033 14.7475 14.7075 14.5125 14.8725C14.2775 15.0375 14.0233 15.1825 13.75 15.3075V19.7125ZM6.75996 11.4175H9.24996V13.8638C9.67663 14.1271 10.0733 14.3063 10.44 14.4013C10.8066 14.4963 11.16 14.5433 11.5 14.5425C12.075 14.5425 12.5954 14.4454 13.0612 14.2513C13.527 14.0571 13.9633 13.7567 14.37 13.35L15.0525 12.6675L12.87 10.485C12.2016 9.81667 11.4525 9.31542 10.6225 8.98125C9.79246 8.64709 8.91829 8.48042 7.99996 8.48125C7.39163 8.48125 6.79954 8.56042 6.22371 8.71875C5.64871 8.87709 5.13329 9.08292 4.67746 9.33625L6.75996 11.4175Z" fill="black"/>
</svg>
