<svg width="24" height="24" viewBox="0 0 24 24" fill="none" xmlns="http://www.w3.org/2000/svg">
<path d="M1.875 17.625C1.875 18.3212 2.15156 18.9889 2.64384 19.4812C3.13613 19.9734 3.80381 20.25 4.5 20.25C5.19619 20.25 5.86387 19.9734 6.35616 19.4812C6.84844 18.9889 7.125 18.3212 7.125 17.625C7.125 16.9288 6.84844 16.2611 6.35616 15.7688C5.86387 15.2766 5.19619 15 4.5 15C3.80381 15 3.13613 15.2766 2.64384 15.7688C2.15156 16.2611 1.875 16.9288 1.875 17.625Z" stroke="black" stroke-width="1.5" stroke-linecap="round" stroke-linejoin="round"/>
<path d="M8.25 23.25C7.88751 22.5703 7.34712 22.002 6.68661 21.6057C6.02609 21.2093 5.27029 21 4.5 21C3.72971 21 2.97391 21.2093 2.31339 21.6057C1.65288 22.002 1.11249 22.5703 0.75 23.25M16.875 17.625C16.875 17.9697 16.9429 18.3111 17.0748 18.6295C17.2067 18.948 17.4001 19.2374 17.6438 19.4812C17.8876 19.7249 18.177 19.9183 18.4955 20.0502C18.8139 20.1821 19.1553 20.25 19.5 20.25C19.8447 20.25 20.1861 20.1821 20.5045 20.0502C20.823 19.9183 21.1124 19.7249 21.3562 19.4812C21.5999 19.2374 21.7933 18.948 21.9252 18.6295C22.0571 18.3111 22.125 17.9697 22.125 17.625C22.125 16.9288 21.8484 16.2611 21.3562 15.7688C20.8639 15.2766 20.1962 15 19.5 15C18.8038 15 18.1361 15.2766 17.6438 15.7688C17.1516 16.2611 16.875 16.9288 16.875 17.625Z" stroke="black" stroke-width="1.5" stroke-linecap="round" stroke-linejoin="round"/>
<path d="M23.25 23.25C22.8875 22.5703 22.3471 22.002 21.6866 21.6057C21.0261 21.2093 20.2703 21 19.5 21C18.7297 21 17.9739 21.2093 17.3134 21.6057C16.6529 22.002 16.1125 22.5703 15.75 23.25M15.249 8.25C14.8482 7.7796 14.35 7.40182 13.7888 7.14277C13.2277 6.88371 12.6171 6.74955 11.999 6.74955C11.381 6.74955 10.7703 6.88371 10.2092 7.14277C9.64808 7.40182 9.14988 7.7796 8.74902 8.25M9.05102 19.707C10.9663 20.4369 13.0842 20.4305 14.995 19.689M6.34902 6C5.5282 6.76901 4.87394 7.69829 4.42672 8.73033C3.9795 9.76238 3.74884 10.8752 3.74902 12C3.74902 12.253 3.76402 12.5 3.78702 12.75M20.212 12.75C20.234 12.502 20.25 12.25 20.25 12C20.2502 10.8752 20.0196 9.76238 19.5723 8.73033C19.1251 7.69829 18.4708 6.76901 17.65 6M9.37502 3.375C9.37502 3.71972 9.44292 4.06106 9.57484 4.37954C9.70676 4.69802 9.90012 4.9874 10.1439 5.23116C10.3876 5.47491 10.677 5.66827 10.9955 5.80018C11.314 5.9321 11.6553 6 12 6C12.3447 6 12.6861 5.9321 13.0046 5.80018C13.323 5.66827 13.6124 5.47491 13.8562 5.23116C14.0999 4.9874 14.2933 4.69802 14.4252 4.37954C14.5571 4.06106 14.625 3.71972 14.625 3.375C14.625 2.67881 14.3485 2.01113 13.8562 1.51884C13.3639 1.02656 12.6962 0.75 12 0.75C11.3038 0.75 10.6362 1.02656 10.1439 1.51884C9.65159 2.01113 9.37502 2.67881 9.37502 3.375Z" stroke="black" stroke-width="1.5" stroke-linecap="round" stroke-linejoin="round"/>
</svg>
