<svg width="33" height="33" viewBox="0 0 33 33" fill="none" xmlns="http://www.w3.org/2000/svg">
<path d="M2.57666 24.2344C2.57666 25.1916 2.95693 26.1097 3.63382 26.7866C4.31071 27.4635 5.22877 27.8438 6.18604 27.8438C7.1433 27.8438 8.06136 27.4635 8.73825 26.7866C9.41514 26.1097 9.79541 25.1916 9.79541 24.2344C9.79541 23.2771 9.41514 22.3591 8.73825 21.6822C8.06136 21.0053 7.1433 20.625 6.18604 20.625C5.22877 20.625 4.31071 21.0053 3.63382 21.6822C2.95693 22.3591 2.57666 23.2771 2.57666 24.2344Z" stroke="#8A817C" stroke-width="2" stroke-linecap="round" stroke-linejoin="round"/>
<path d="M11.3423 31.9688C10.8439 31.0342 10.1008 30.2527 9.19262 29.7078C8.28441 29.1629 7.24518 28.875 6.18604 28.875C5.12689 28.875 4.08766 29.1629 3.17945 29.7078C2.27124 30.2527 1.52821 31.0342 1.02979 31.9688M23.2017 24.2344C23.2017 24.7084 23.295 25.1777 23.4764 25.6156C23.6578 26.0535 23.9237 26.4514 24.2588 26.7866C24.594 27.1218 24.9919 27.3876 25.4298 27.569C25.8677 27.7504 26.337 27.8438 26.811 27.8438C27.285 27.8438 27.7544 27.7504 28.1923 27.569C28.6302 27.3876 29.0281 27.1218 29.3632 26.7866C29.6984 26.4514 29.9643 26.0535 30.1457 25.6156C30.327 25.1777 30.4204 24.7084 30.4204 24.2344C30.4204 23.2771 30.0401 22.3591 29.3632 21.6822C28.6864 21.0053 27.7683 20.625 26.811 20.625C25.8538 20.625 24.9357 21.0053 24.2588 21.6822C23.5819 22.3591 23.2017 23.2771 23.2017 24.2344Z" stroke="#8A817C" stroke-width="2" stroke-linecap="round" stroke-linejoin="round"/>
<path d="M31.9672 31.9688C31.4688 31.0342 30.7257 30.2527 29.8175 29.7078C28.9093 29.1629 27.8701 28.875 26.8109 28.875C25.7518 28.875 24.7126 29.1629 23.8044 29.7078C22.8962 30.2527 22.1531 31.0342 21.6547 31.9688M20.9658 11.3438C20.4146 10.6969 19.7296 10.1775 18.9581 9.8213C18.1865 9.4651 17.3469 9.28063 16.4971 9.28063C15.6473 9.28063 14.8076 9.4651 14.0361 9.8213C13.2645 10.1775 12.5795 10.6969 12.0283 11.3438M12.4436 27.0971C15.0771 28.1007 17.9892 28.0919 20.6166 27.0724M8.72832 8.25C7.59969 9.30739 6.70007 10.5851 6.08515 12.0042C5.47022 13.4233 5.15307 14.9534 5.15332 16.5C5.15332 16.8479 5.17395 17.1875 5.20557 17.5312M27.7899 17.5312C27.8202 17.1903 27.8422 16.8438 27.8422 16.5C27.8424 14.9534 27.5253 13.4233 26.9104 12.0042C26.2954 10.5851 25.3958 9.30739 24.2672 8.25M12.8891 4.64062C12.8891 5.11461 12.9824 5.58396 13.1638 6.02187C13.3452 6.45978 13.6111 6.85768 13.9462 7.19284C14.2814 7.528 14.6793 7.79386 15.1172 7.97525C15.5551 8.15664 16.0245 8.25 16.4984 8.25C16.9724 8.25 17.4418 8.15664 17.8797 7.97525C18.3176 7.79386 18.7155 7.528 19.0507 7.19284C19.3858 6.85768 19.6517 6.45978 19.8331 6.02187C20.0145 5.58396 20.1078 5.11461 20.1078 4.64062C20.1078 3.68336 19.7275 2.7653 19.0507 2.08841C18.3738 1.41152 17.4557 1.03125 16.4984 1.03125C15.5412 1.03125 14.6231 1.41152 13.9462 2.08841C13.2693 2.7653 12.8891 3.68336 12.8891 4.64062Z" stroke="#8A817C" stroke-width="2" stroke-linecap="round" stroke-linejoin="round"/>
</svg>
