<svg width="24" height="24" viewBox="0 0 24 24" fill="none" xmlns="http://www.w3.org/2000/svg">
<path d="M1.87524 17.625C1.87524 18.3212 2.15181 18.9889 2.64409 19.4812C3.13637 19.9734 3.80405 20.25 4.50024 20.25C5.19644 20.25 5.86412 19.9734 6.3564 19.4812C6.84868 18.9889 7.12524 18.3212 7.12524 17.625C7.12524 16.9288 6.84868 16.2611 6.3564 15.7688C5.86412 15.2766 5.19644 15 4.50024 15C3.80405 15 3.13637 15.2766 2.64409 15.7688C2.15181 16.2611 1.87524 16.9288 1.87524 17.625Z" stroke="#6B150F" stroke-width="1.5" stroke-linecap="round" stroke-linejoin="round"/>
<path d="M8.25024 23.25C7.88776 22.5703 7.34737 22.002 6.68685 21.6057C6.02634 21.2093 5.27053 21 4.50024 21C3.72996 21 2.97415 21.2093 2.31364 21.6057C1.65312 22.002 1.11273 22.5703 0.750244 23.25M16.8752 17.625C16.8752 17.9697 16.9431 18.3111 17.0751 18.6295C17.207 18.948 17.4003 19.2374 17.6441 19.4812C17.8878 19.7249 18.1772 19.9183 18.4957 20.0502C18.8142 20.1821 19.1555 20.25 19.5002 20.25C19.845 20.25 20.1863 20.1821 20.5048 20.0502C20.8233 19.9183 21.1126 19.7249 21.3564 19.4812C21.6002 19.2374 21.7935 18.948 21.9254 18.6295C22.0573 18.3111 22.1252 17.9697 22.1252 17.625C22.1252 16.9288 21.8487 16.2611 21.3564 15.7688C20.8641 15.2766 20.1964 15 19.5002 15C18.8041 15 18.1364 15.2766 17.6441 15.7688C17.1518 16.2611 16.8752 16.9288 16.8752 17.625Z" stroke="#6B150F" stroke-width="1.5" stroke-linecap="round" stroke-linejoin="round"/>
<path d="M23.2503 23.25C22.8878 22.5703 22.3474 22.002 21.6869 21.6057C21.0264 21.2093 20.2706 21 19.5003 21C18.73 21 17.9742 21.2093 17.3137 21.6057C16.6531 22.002 16.1128 22.5703 15.7503 23.25M15.2493 8.25C14.8484 7.7796 14.3502 7.40182 13.7891 7.14277C13.228 6.88371 12.6173 6.74955 11.9993 6.74955C11.3812 6.74955 10.7706 6.88371 10.2094 7.14277C9.64833 7.40182 9.15013 7.7796 8.74927 8.25M9.05127 19.707C10.9665 20.4369 13.0845 20.4305 14.9953 19.689M6.34927 6C5.52845 6.76901 4.87418 7.69829 4.42696 8.73033C3.97974 9.76238 3.74909 10.8752 3.74927 12C3.74927 12.253 3.76427 12.5 3.78727 12.75M20.2123 12.75C20.2343 12.502 20.2503 12.25 20.2503 12C20.2505 10.8752 20.0198 9.76238 19.5726 8.73033C19.1254 7.69829 18.4711 6.76901 17.6503 6M9.37527 3.375C9.37527 3.71972 9.44317 4.06106 9.57508 4.37954C9.707 4.69802 9.90036 4.9874 10.1441 5.23116C10.3879 5.47491 10.6772 5.66827 10.9957 5.80018C11.3142 5.9321 11.6555 6 12.0003 6C12.345 6 12.6863 5.9321 13.0048 5.80018C13.3233 5.66827 13.6127 5.47491 13.8564 5.23116C14.1002 4.9874 14.2935 4.69802 14.4255 4.37954C14.5574 4.06106 14.6253 3.71972 14.6253 3.375C14.6253 2.67881 14.3487 2.01113 13.8564 1.51884C13.3641 1.02656 12.6965 0.75 12.0003 0.75C11.3041 0.75 10.6364 1.02656 10.1441 1.51884C9.65183 2.01113 9.37527 2.67881 9.37527 3.375Z" stroke="#6B150F" stroke-width="1.5" stroke-linecap="round" stroke-linejoin="round"/>
</svg>
