<svg width="23" height="23" viewBox="0 0 23 23" fill="none" xmlns="http://www.w3.org/2000/svg">
<path fill-rule="evenodd" clip-rule="evenodd" d="M11.5001 1.91669C6.20737 1.91669 1.91675 6.20727 1.91675 11.5C1.91675 16.7927 6.20737 21.0834 11.5001 21.0834C16.7929 21.0834 21.0834 16.7927 21.0834 11.5C21.0834 6.20727 16.7929 1.91669 11.5001 1.91669ZM11.5001 19.1667C7.27269 19.1667 3.83343 15.7274 3.83343 11.5C3.83343 7.27259 7.27265 3.83337 11.5001 3.83337C15.7275 3.83337 19.1667 7.27259 19.1667 11.5C19.1667 15.7274 15.7275 19.1667 11.5001 19.1667ZM12.7001 7.66669C12.7001 8.36154 12.1942 8.86462 11.5098 8.86462C10.7978 8.86462 10.3042 8.36149 10.3042 7.65339C10.3042 6.97282 10.8111 6.4688 11.5098 6.4688C12.1942 6.4688 12.7001 6.97282 12.7001 7.66669ZM10.5439 10.5417H12.4605V16.2917H10.5439V10.5417Z" fill="#6B150F"/>
</svg>
