<svg width="23" height="23" viewBox="0 0 23 23" fill="none" xmlns="http://www.w3.org/2000/svg">
<path fill-rule="evenodd" clip-rule="evenodd" d="M11.4998 1.91669C6.20713 1.91669 1.9165 6.20727 1.9165 11.5C1.9165 16.7927 6.20713 21.0834 11.4998 21.0834C16.7926 21.0834 21.0832 16.7927 21.0832 11.5C21.0832 6.20727 16.7926 1.91669 11.4998 1.91669ZM11.4998 19.1667C7.27245 19.1667 3.83319 15.7274 3.83319 11.5C3.83319 7.27259 7.2724 3.83337 11.4998 3.83337C15.7273 3.83337 19.1665 7.27259 19.1665 11.5C19.1665 15.7274 15.7273 19.1667 11.4998 19.1667ZM12.6999 7.66669C12.6999 8.36154 12.194 8.86462 11.5096 8.86462C10.7975 8.86462 10.304 8.36149 10.304 7.65339C10.304 6.97282 10.8109 6.4688 11.5096 6.4688C12.194 6.4688 12.6999 6.97282 12.6999 7.66669ZM10.5436 10.5417H12.4603V16.2917H10.5436V10.5417Z" fill="black"/>
</svg>
