<svg width="24" height="24" viewBox="0 0 24 24" fill="none" xmlns="http://www.w3.org/2000/svg">
<path d="M2.04983 13H7.52683C7.69794 16.1668 8.70738 19.2314 10.4518 21.88C8.26658 21.537 6.25661 20.4794 4.73624 18.8727C3.21586 17.2661 2.2718 15.2008 2.04983 13ZM2.04883 11C2.27054 8.79911 3.21536 6.73376 4.73556 5.12689C6.25576 3.52003 8.26561 2.46226 10.4508 2.11899C8.70638 4.7676 7.69694 7.83213 7.52583 10.999L2.04883 11ZM21.9488 11H16.4718C16.3009 7.83279 15.2914 4.76789 13.5468 2.11899C15.7321 2.46201 17.742 3.51955 19.2624 5.12623C20.7828 6.73291 21.7279 8.79815 21.9498 10.999M21.9498 12.999C21.7279 15.1997 20.783 17.2648 19.2628 18.8715C17.7426 20.4781 15.7329 21.5358 13.5478 21.879C15.2921 19.2307 16.3015 16.1665 16.4728 13L21.9498 12.999ZM9.52983 13H14.4698C14.3056 15.6995 13.4555 18.3126 11.9998 20.592C10.5442 18.3126 9.69407 15.6995 9.52983 13ZM9.52983 11C9.69407 8.30044 10.5442 5.6874 11.9998 3.40799C13.4555 5.6874 14.3056 8.30044 14.4698 11H9.52983Z" fill="black"/>
</svg>
