<svg width="440" height="403" viewBox="0 0 440 403" fill="none" xmlns="http://www.w3.org/2000/svg">
<path d="M115.115 180.269C120.282 195.747 125.298 211.273 130.164 226.848C145.489 236.807 160.7 246.942 175.794 257.249C184.319 263.12 192.809 269.081 201.156 275.337C205.309 278.424 209.378 281.622 213.359 284.928L215.827 189.619C206.497 168.334 195.002 148.005 182.311 128.404C169.106 108.08 154.732 88.5407 139.26 69.8844L157.224 165.371C165.619 210.073 138.799 180.785 138.799 180.785L97.4119 132.942C101.186 140.491 103.936 148.493 106.837 156.386L115.115 180.269Z" fill="#F8F2F4"/>
<path d="M72.2976 189.221L121.846 221.396C118.608 207.986 115.265 194.602 111.815 181.246L105.236 156.901C102.871 148.844 100.671 140.711 97.4326 132.935L92.1389 154.323C89.2101 166.1 83.5176 166.54 81.4207 166.272L21.7251 153.773C29.3357 160.731 38.067 166.286 46.5232 172.157L72.2976 189.221ZM224.159 189.612L226.641 284.921C230.62 281.618 234.684 278.42 238.831 275.33C247.198 269.074 255.681 263.113 264.206 257.242C279.294 246.933 294.5 236.799 309.822 226.841C314.698 211.268 319.719 195.741 324.885 180.262L333.128 156.372C336.043 148.479 338.793 140.47 342.568 132.928L301.18 180.771C301.18 180.771 274.354 210.059 282.755 165.357L300.747 69.8706L300.699 69.8912C285.23 88.541 270.858 108.074 257.654 128.391C245.004 147.998 233.496 168.327 224.159 189.612Z" fill="#F8F2F4"/>
<path d="M216.198 175.677L220 29.4869L223.802 175.677C233.056 158.558 243.581 142.189 254.849 126.466C269.03 106.735 284.348 87.8471 300.726 69.8981L267.506 86.4875C265.616 87.2369 259.057 88.1787 250.374 71.6375L220 13.75L189.64 71.6375C180.95 88.1787 174.398 87.2437 172.494 86.4875L139.274 69.8775C155.654 87.8307 170.975 106.723 185.158 126.459C196.432 142.189 206.951 158.558 216.198 175.677ZM328.185 181.246C324.733 194.6 321.394 207.984 318.168 221.396L367.703 189.221L393.484 172.157C401.933 166.286 410.671 160.731 418.282 153.773L358.579 166.272C356.51 166.54 350.776 166.1 347.861 154.323L342.568 132.935C339.316 140.711 337.129 148.844 334.764 156.901L328.185 181.246ZM86.2606 246.359C106.294 247.204 126.369 247.651 146.417 247.919C137.73 241.432 129.015 234.983 120.271 228.573L70.3312 192.046L45.5194 173.559C37.3931 167.221 28.9644 161.164 21.725 153.78L39.435 216.597C40.1844 221.107 39.8544 227.796 32.4362 231.048L13.75 239.284C25.5406 242.344 37.7438 243.189 49.83 244.269C61.9575 245.204 74.1056 245.85 86.2606 246.359ZM283.931 325.339C270.057 312.957 256.513 300.135 242.584 288.035C240.006 290.262 237.401 292.469 234.96 294.752C232.086 297.467 229.254 300.245 227.116 302.967L228.319 349.229C232.932 349.277 236.748 349.367 238.274 349.497L332.001 363.811C323.18 358.559 315.122 352.089 307.189 345.565C299.304 338.976 291.55 332.233 283.931 325.339Z" fill="#F8F2F4"/>
<path d="M390.342 245.967C378.242 247.486 366.121 248.703 353.98 249.796C330.859 251.852 307.718 253.447 284.542 254.781C279.778 258.376 274.993 261.938 270.284 265.574C262.594 271.496 255.014 277.558 247.548 283.759C260.762 296.622 273.315 309.918 286.289 322.85C293.493 330.137 300.839 337.281 308.323 344.279C315.858 351.209 323.482 358.084 331.994 363.818L324.005 338.855C320.34 327.429 330.935 316.779 335.314 313.143C357.754 294.346 426.25 239.284 426.25 239.284C414.597 242.908 402.401 244.317 390.342 245.967ZM205.054 294.752C202.613 292.469 200.007 290.269 197.429 288.035C183.494 300.135 169.957 312.957 156.083 325.339C148.456 332.227 140.697 338.968 132.811 345.558C124.877 352.083 116.834 358.559 107.999 363.804L201.726 349.491C203.273 349.353 207.082 349.271 211.695 349.223L212.898 302.961C210.746 300.245 207.914 297.468 205.054 294.752Z" fill="#F8F2F4"/>
<path d="M369.669 192.046L319.729 228.573C310.99 234.99 302.275 241.439 293.583 247.919C313.644 247.651 333.706 247.204 353.753 246.359C365.908 245.85 378.042 245.204 390.17 244.262C402.256 243.189 414.459 242.344 426.25 239.277L407.571 231.034C400.159 227.782 399.809 221.1 400.572 216.583L418.282 153.766C411.043 161.15 402.6 167.207 394.474 173.545L369.669 192.046ZM153.704 322.843C166.678 309.911 179.231 296.622 192.459 283.752C185.034 277.564 177.409 271.535 169.709 265.567C164.993 261.93 160.215 258.369 155.464 254.774C132.294 253.477 109.145 251.816 86.0269 249.789C73.8798 248.729 61.7527 247.453 49.6513 245.96C37.6131 244.317 25.4031 242.907 13.75 239.284C13.75 239.284 82.2456 294.353 104.699 313.135C109.079 316.772 119.659 327.422 116.009 338.848L108.006 363.811C116.518 358.077 124.163 351.202 131.691 344.272C139.169 337.275 146.508 330.13 153.704 322.843ZM211.695 349.229L209.688 426.25H230.312L228.319 349.229C223.114 349.167 216.899 349.167 211.695 349.229Z" fill="#F8F2F4"/>
</svg>
