<svg width="25" height="25" viewBox="0 0 25 25" fill="none" xmlns="http://www.w3.org/2000/svg">
<path d="M17.7083 16.6667C16.8403 16.6667 16.1024 16.3628 15.4948 15.7552C14.8872 15.1476 14.5833 14.4097 14.5833 13.5417C14.5833 12.6736 14.8872 11.9358 15.4948 11.3281C16.1024 10.7205 16.8403 10.4167 17.7083 10.4167C18.5764 10.4167 19.3142 10.7205 19.9219 11.3281C20.5295 11.9358 20.8333 12.6736 20.8333 13.5417C20.8333 14.4097 20.5295 15.1476 19.9219 15.7552C19.3142 16.3628 18.5764 16.6667 17.7083 16.6667ZM11.4583 23.9583V20.9375C11.4583 20.5729 11.5451 20.2302 11.7188 19.9094C11.8924 19.5885 12.1354 19.3323 12.4479 19.1406C13.0035 18.8108 13.5896 18.5372 14.2063 18.3198C14.8229 18.1024 15.4521 17.942 16.0938 17.8385L17.7083 19.7917L19.3229 17.8385C19.9653 17.9427 20.5903 18.1035 21.1979 18.3208C21.8056 18.5382 22.3872 18.8115 22.9427 19.1406C23.2552 19.3316 23.5028 19.5878 23.6854 19.9094C23.8681 20.2309 23.959 20.5736 23.9583 20.9375V23.9583H11.4583ZM9.375 20.9375V21.875H5.20833C4.63542 21.875 4.14514 21.6712 3.7375 21.2635C3.32986 20.8559 3.12569 20.3653 3.125 19.7917V5.20833C3.125 4.63542 3.32917 4.14514 3.7375 3.7375C4.14583 3.32986 4.63611 3.12569 5.20833 3.125H19.7917C20.3646 3.125 20.8552 3.32917 21.2635 3.7375C21.6719 4.14583 21.8757 4.63611 21.875 5.20833V10.4167C21.3368 9.73958 20.7292 9.22326 20.0521 8.86771C19.375 8.51215 18.5938 8.33403 17.7083 8.33333V7.29167H7.29167V9.375H14.5833C14.2361 9.65278 13.9236 9.96528 13.6458 10.3125C13.3681 10.6597 13.1337 11.0417 12.9427 11.4583H7.29167V13.5417H12.5C12.5 13.9063 12.5392 14.2622 12.6177 14.6094C12.6962 14.9566 12.8045 15.2951 12.9427 15.625H7.29167V17.7083H10.8854C10.4167 18.1076 10.0479 18.5896 9.77917 19.1542C9.51042 19.7188 9.37569 20.3132 9.375 20.9375Z" fill="#6B150F"/>
</svg>
