<svg width="36" height="36" viewBox="0 0 36 36" fill="none" xmlns="http://www.w3.org/2000/svg">
<path d="M25.5 24C24.25 24 23.1875 23.5625 22.3125 22.6875C21.4375 21.8125 21 20.75 21 19.5C21 18.25 21.4375 17.1875 22.3125 16.3125C23.1875 15.4375 24.25 15 25.5 15C26.75 15 27.8125 15.4375 28.6875 16.3125C29.5625 17.1875 30 18.25 30 19.5C30 20.75 29.5625 21.8125 28.6875 22.6875C27.8125 23.5625 26.75 24 25.5 24ZM16.5 34.5V30.15C16.5 29.625 16.625 29.1315 16.875 28.6695C17.125 28.2075 17.475 27.8385 17.925 27.5625C18.725 27.0875 19.569 26.6935 20.457 26.3805C21.345 26.0675 22.251 25.8365 23.175 25.6875L25.5 28.5L27.825 25.6875C28.75 25.8375 29.65 26.069 30.525 26.382C31.4 26.695 32.2375 27.0885 33.0375 27.5625C33.4875 27.8375 33.844 28.2065 34.107 28.6695C34.37 29.1325 34.501 29.626 34.5 30.15V34.5H16.5ZM13.5 30.15V31.5H7.5C6.675 31.5 5.969 31.2065 5.382 30.6195C4.795 30.0325 4.501 29.326 4.5 28.5V7.5C4.5 6.675 4.794 5.969 5.382 5.382C5.97 4.795 6.676 4.501 7.5 4.5H28.5C29.325 4.5 30.0315 4.794 30.6195 5.382C31.2075 5.97 31.501 6.676 31.5 7.5V15C30.725 14.025 29.85 13.2815 28.875 12.7695C27.9 12.2575 26.775 12.001 25.5 12V10.5H10.5V13.5H21C20.5 13.9 20.05 14.35 19.65 14.85C19.25 15.35 18.9125 15.9 18.6375 16.5H10.5V19.5H18C18 20.025 18.0565 20.5375 18.1695 21.0375C18.2825 21.5375 18.4385 22.025 18.6375 22.5H10.5V25.5H15.675C15 26.075 14.469 26.769 14.082 27.582C13.695 28.395 13.501 29.251 13.5 30.15Z" fill="#8A817C"/>
</svg>
