<svg width="30" height="33" viewBox="0 0 30 33" fill="none" xmlns="http://www.w3.org/2000/svg">
<path d="M19.7917 24.9167H28.3333L25.9332 22.5166C25.2823 21.8657 24.9167 20.9829 24.9167 20.0624V14.6667C24.9167 10.2038 22.0644 6.40703 18.0833 4.99992V4.41667C18.0833 2.52969 16.5536 1 14.6667 1C12.7797 1 11.25 2.52969 11.25 4.41667V4.99992C7.26893 6.40703 4.41667 10.2038 4.41667 14.6667V20.0624C4.41667 20.9829 4.05099 21.8657 3.40009 22.5166L1 24.9167H9.54167M19.7917 24.9167V26.625C19.7917 29.4555 17.4971 31.75 14.6667 31.75C11.8362 31.75 9.54167 29.4555 9.54167 26.625V24.9167M19.7917 24.9167H9.54167" stroke="black" stroke-width="2" stroke-linecap="round" stroke-linejoin="round"/>
</svg>
