<svg width="41" height="41" viewBox="0 0 41 41" fill="none" xmlns="http://www.w3.org/2000/svg">
<path d="M25.6249 29.0417H34.1666L31.7665 26.6416C31.1156 25.9907 30.7499 25.1079 30.7499 24.1874V18.7917C30.7499 14.3288 27.8977 10.532 23.9166 9.12492V8.54167C23.9166 6.65469 22.3869 5.125 20.4999 5.125C18.6129 5.125 17.0833 6.65469 17.0833 8.54167V9.12492C13.1022 10.532 10.2499 14.3288 10.2499 18.7917V24.1874C10.2499 25.1079 9.88425 25.9907 9.23335 26.6416L6.83325 29.0417H15.3749M25.6249 29.0417V30.75C25.6249 33.5805 23.3304 35.875 20.4999 35.875C17.6695 35.875 15.3749 33.5805 15.3749 30.75V29.0417M25.6249 29.0417H15.3749" stroke="white" stroke-width="2" stroke-linecap="round" stroke-linejoin="round"/>
</svg>
