<svg width="35" height="35" viewBox="0 0 35 35" fill="none" xmlns="http://www.w3.org/2000/svg">
<path d="M24.7917 30.625C24.7917 28.6911 24.0234 26.8365 22.656 25.469C21.2885 24.1016 19.4339 23.3333 17.5 23.3333C15.5661 23.3333 13.7115 24.1016 12.344 25.469C10.9766 26.8365 10.2083 28.6911 10.2083 30.625M24.7917 30.625H25.9627C27.5931 30.625 28.4083 30.625 29.031 30.3071C29.5806 30.0273 30.0273 29.5806 30.3071 29.031C30.625 28.4083 30.625 27.5931 30.625 25.9627V9.03729C30.625 7.40688 30.625 6.59021 30.3071 5.9675C30.0271 5.4185 29.5804 4.9723 29.031 4.69292C28.4083 4.375 27.5917 4.375 25.9583 4.375H9.04167C7.40833 4.375 6.59167 4.375 5.9675 4.69292C5.41872 4.97254 4.97254 5.41872 4.69292 5.9675C4.375 6.59167 4.375 7.40833 4.375 9.04167V25.9583C4.375 27.5917 4.375 28.4083 4.69292 29.031C4.97292 29.5808 5.41771 30.0271 5.9675 30.3071C6.59021 30.625 7.40688 30.625 9.03729 30.625H10.2083M24.7917 30.625H10.2083M17.5 18.9583C16.3397 18.9583 15.2269 18.4974 14.4064 17.6769C13.5859 16.8565 13.125 15.7437 13.125 14.5833C13.125 13.423 13.5859 12.3102 14.4064 11.4897C15.2269 10.6693 16.3397 10.2083 17.5 10.2083C18.6603 10.2083 19.7731 10.6693 20.5936 11.4897C21.4141 12.3102 21.875 13.423 21.875 14.5833C21.875 15.7437 21.4141 16.8565 20.5936 17.6769C19.7731 18.4974 18.6603 18.9583 17.5 18.9583Z" stroke="#8A817C" stroke-width="2" stroke-linecap="round" stroke-linejoin="round"/>
</svg>
