<svg width="80" height="80" viewBox="0 0 80 80" fill="none" xmlns="http://www.w3.org/2000/svg">
<path d="M56.6667 53.3333C53.8889 53.3333 51.5278 52.3611 49.5833 50.4167C47.6389 48.4722 46.6667 46.1111 46.6667 43.3333C46.6667 40.5556 47.6389 38.1944 49.5833 36.25C51.5278 34.3056 53.8889 33.3333 56.6667 33.3333C59.4444 33.3333 61.8056 34.3056 63.75 36.25C65.6944 38.1944 66.6667 40.5556 66.6667 43.3333C66.6667 46.1111 65.6944 48.4722 63.75 50.4167C61.8056 52.3611 59.4444 53.3333 56.6667 53.3333ZM36.6667 76.6667V67C36.6667 65.8333 36.9444 64.7367 37.5 63.71C38.0556 62.6833 38.8333 61.8633 39.8333 61.25C41.6111 60.1944 43.4867 59.3189 45.46 58.6233C47.4333 57.9278 49.4467 57.4144 51.5 57.0833L56.6667 63.3333L61.8333 57.0833C63.8889 57.4167 65.8889 57.9311 67.8333 58.6267C69.7778 59.3222 71.6389 60.1967 73.4167 61.25C74.4167 61.8611 75.2089 62.6811 75.7933 63.71C76.3778 64.7389 76.6689 65.8356 76.6667 67V76.6667H36.6667ZM30 67V70H16.6667C14.8333 70 13.2644 69.3478 11.96 68.0433C10.6556 66.7389 10.0022 65.1689 10 63.3333V16.6667C10 14.8333 10.6533 13.2644 11.96 11.96C13.2667 10.6556 14.8356 10.0022 16.6667 10H63.3333C65.1667 10 66.7367 10.6533 68.0433 11.96C69.35 13.2667 70.0022 14.8356 70 16.6667V33.3333C68.2778 31.1667 66.3333 29.5144 64.1667 28.3767C62 27.2389 59.5 26.6689 56.6667 26.6667V23.3333H23.3333V30H46.6667C45.5556 30.8889 44.5556 31.8889 43.6667 33C42.7778 34.1111 42.0278 35.3333 41.4167 36.6667H23.3333V43.3333H40C40 44.5 40.1256 45.6389 40.3767 46.75C40.6278 47.8611 40.9744 48.9444 41.4167 50H23.3333V56.6667H34.8333C33.3333 57.9444 32.1533 59.4867 31.2933 61.2933C30.4333 63.1 30.0022 65.0022 30 67Z" fill="#F8F2F4"/>
</svg>
