<svg width="36" height="36" viewBox="0 0 36 36" fill="none" xmlns="http://www.w3.org/2000/svg">
<path d="M18.0829 2.10654e-07C17.7943 -0.000165309 17.5141 0.0972157 17.2878 0.276335C17.0616 0.455454 16.9025 0.705796 16.8364 0.986721L14.6326 10.3574C11.9602 9.9906 9.24003 10.472 6.85586 11.7338C4.47169 12.9956 2.54379 14.974 1.34409 17.39C0.144397 19.806 -0.266558 22.5377 0.169193 25.1997C0.604943 27.8617 1.86541 30.3198 3.77281 32.2272C5.6802 34.1346 8.13827 35.3951 10.8003 35.8308C13.4623 36.2666 16.194 35.8556 18.61 34.6559C21.026 33.4562 23.0044 31.5283 24.2662 29.1441C25.528 26.76 26.0094 24.0398 25.6426 21.3674L35.0133 19.1636C35.2942 19.0975 35.5445 18.9384 35.7237 18.7122C35.9028 18.4859 36.0002 18.2057 36 17.9171C35.9946 13.1669 34.1051 8.61272 30.7462 5.25379C27.3873 1.89485 22.8331 0.00541978 18.0829 2.10654e-07ZM12.0589 23.9411C12.2989 24.1811 12.6243 24.316 12.9637 24.3161C13.0624 24.3163 13.1607 24.3052 13.2568 24.2828L18.0714 23.1489C18.0501 24.1509 17.7348 25.1245 17.1648 25.9489C16.5948 26.7732 15.7952 27.4119 14.8652 27.7855C13.9353 28.1592 12.916 28.2514 11.9341 28.0507C10.9522 27.8499 10.051 27.3651 9.34229 26.6564C8.63362 25.9478 8.14879 25.0465 7.94805 24.0646C7.74731 23.0827 7.8395 22.0634 8.21317 21.1335C8.58685 20.2035 9.22552 19.4039 10.0499 18.8339C10.8742 18.2639 11.8478 17.9486 12.8498 17.9273L11.7172 22.7432C11.6674 22.9555 11.6727 23.1769 11.7325 23.3865C11.7923 23.5962 11.9046 23.7871 12.0589 23.9411ZM14.6825 21.3175L17.5889 8.96751C20.0815 9.00709 22.4609 10.0149 24.2237 11.7776C25.9864 13.5404 26.9942 15.9198 27.0338 18.4124L14.6825 21.3175ZM23.2021 23.0363C23.2021 25.0612 22.6016 27.0407 21.4766 28.7244C20.3516 30.4081 18.7526 31.7204 16.8818 32.4953C15.0109 33.2702 12.9524 33.473 10.9663 33.0779C8.98027 32.6829 7.15597 31.7077 5.72411 30.2759C4.29225 28.844 3.31714 27.0197 2.9221 25.0337C2.52705 23.0476 2.7298 20.989 3.50472 19.1182C4.27963 17.2474 5.59191 15.6484 7.27559 14.5234C8.95928 13.3984 10.9388 12.7979 12.9637 12.7979C13.3246 12.7989 13.6851 12.819 14.0439 12.8581L13.45 15.3818C13.2875 15.3716 13.1262 15.3575 12.9637 15.3575C11.445 15.3575 9.96039 15.8079 8.69762 16.6516C7.43486 17.4954 6.45065 18.6946 5.86947 20.0977C5.28828 21.5009 5.13621 23.0448 5.4325 24.5343C5.72879 26.0239 6.46012 27.3921 7.53401 28.466C8.60791 29.5399 9.97613 30.2712 11.4657 30.5675C12.9552 30.8638 14.4991 30.7117 15.9022 30.1305C17.3054 29.5493 18.5046 28.5651 19.3484 27.3024C20.1921 26.0396 20.6425 24.555 20.6425 23.0363C20.6425 22.8737 20.6284 22.7125 20.6182 22.55L23.1419 21.9561C23.181 22.3149 23.2011 22.6754 23.2021 23.0363ZM29.5626 17.8147C29.3781 14.8577 28.1202 12.0698 26.0252 9.97477C23.9302 7.87977 21.1423 6.62185 18.1853 6.43736L19.0888 2.59158C22.8046 2.84071 26.3039 4.42936 28.9373 7.06274C31.5706 9.69611 33.1593 13.1954 33.4084 16.9112L29.5626 17.8147Z" fill="#D52B1E"/>
</svg>
