<svg width="22" height="22" viewBox="0 0 22 22" fill="none" xmlns="http://www.w3.org/2000/svg">
<path d="M11.0507 1.28733e-07C10.8743 -0.000101022 10.7031 0.0594096 10.5648 0.168871C10.4265 0.278333 10.3293 0.43132 10.2889 0.602996L8.94212 6.3295C7.30898 6.10537 5.64668 6.39959 4.18969 7.17067C2.7327 7.94175 1.55454 9.15077 0.821391 10.6272C0.0882427 12.1037 -0.162897 13.773 0.103396 15.3998C0.369688 17.0266 1.13997 18.5288 2.3056 19.6944C3.47123 20.86 4.97339 21.6303 6.60019 21.8966C8.22699 22.1629 9.89634 21.9118 11.3728 21.1786C12.8492 20.4455 14.0583 19.2673 14.8293 17.8103C15.6004 16.3533 15.8946 14.691 15.6705 13.0579L21.397 11.7111C21.5687 11.6707 21.7217 11.5735 21.8311 11.4352C21.9406 11.2969 22.0001 11.1257 22 10.9493C21.9967 8.04641 20.842 5.26333 18.7894 3.21065C16.7367 1.15796 13.9536 0.00331209 11.0507 1.28733e-07ZM7.36933 14.6307C7.51597 14.7774 7.71486 14.8598 7.92227 14.8598C7.98255 14.86 8.04265 14.8531 8.10137 14.8395L11.0436 14.1466C11.0306 14.7589 10.838 15.3539 10.4896 15.8576C10.1413 16.3614 9.65261 16.7517 9.08431 16.9801C8.51601 17.2084 7.89314 17.2647 7.29308 17.1421C6.69303 17.0194 6.14225 16.7231 5.70918 16.29C5.2761 15.857 4.97982 15.3062 4.85714 14.7061C4.73447 14.1061 4.79081 13.4832 5.01916 12.9149C5.24752 12.3466 5.63782 11.8579 6.14158 11.5096C6.64534 11.1613 7.24034 10.9686 7.85266 10.9556L7.16051 13.8986C7.13009 14.0283 7.1333 14.1637 7.16984 14.2918C7.20639 14.4199 7.27505 14.5365 7.36933 14.6307ZM8.97263 13.0274L10.7488 5.48015C12.272 5.50433 13.7261 6.1202 14.8033 7.19744C15.8806 8.27468 16.4965 9.72876 16.5206 11.252L8.97263 13.0274ZM14.179 14.0777C14.179 15.3152 13.8121 16.5249 13.1246 17.5538C12.4371 18.5827 11.4599 19.3847 10.3166 19.8582C9.17336 20.3318 7.91533 20.4557 6.70164 20.2143C5.48794 19.9729 4.37309 19.377 3.49807 18.5019C2.62304 17.6269 2.02714 16.5121 1.78572 15.2984C1.54431 14.0847 1.66821 12.8266 2.14177 11.6834C2.61533 10.5401 3.41728 9.56292 4.4462 8.87542C5.47512 8.18791 6.6848 7.82096 7.92227 7.82096C8.14279 7.82157 8.36313 7.83384 8.58236 7.85772L8.21947 9.40001C8.12014 9.39376 8.0216 9.38515 7.92227 9.38515C6.99417 9.38515 6.08691 9.66037 5.31521 10.176C4.54352 10.6916 3.94207 11.4245 3.5869 12.282C3.23173 13.1394 3.1388 14.0829 3.31986 14.9932C3.50093 15.9035 3.94785 16.7396 4.60412 17.3959C5.26039 18.0522 6.09652 18.4991 7.00679 18.6801C7.91706 18.8612 8.86059 18.7683 9.71804 18.4131C10.5755 18.0579 11.3084 17.4565 11.824 16.6848C12.3396 15.9131 12.6148 15.0058 12.6148 14.0777C12.6148 13.9784 12.6062 13.8799 12.6 13.7805L14.1423 13.4176C14.1662 13.6369 14.1784 13.8572 14.179 14.0777ZM18.0661 10.8868C17.9533 9.0797 17.1846 7.37598 15.9043 6.09569C14.624 4.81541 12.9203 4.04669 11.1132 3.93394L11.6654 1.58374C13.9362 1.73599 16.0746 2.70683 17.6839 4.31612C19.2932 5.9254 20.264 8.06384 20.4163 10.3346L18.0661 10.8868Z" fill="#6B150F"/>
</svg>
