<svg width="50" height="54" viewBox="0 0 50 54" fill="none" xmlns="http://www.w3.org/2000/svg">
<g filter="url(#filter0_d_25_4705)">
<path d="M14.5832 34.9583L27.2082 22.3333L31.4998 26.625L18.8748 39.25H14.5832V34.9583ZM24.9998 45.5C29.4201 45.5 33.6593 43.7441 36.785 40.6185C39.9106 37.4928 41.6665 33.2536 41.6665 28.8333C41.6665 24.4131 39.9106 20.1738 36.785 17.0482C33.6593 13.9226 29.4201 12.1667 24.9998 12.1667C20.5796 12.1667 16.3403 13.9226 13.2147 17.0482C10.0891 20.1738 8.33317 24.4131 8.33317 28.8333C8.33317 33.2536 10.0891 37.4928 13.2147 40.6185C16.3403 43.7441 20.5796 45.5 24.9998 45.5ZM34.7915 23.3125L32.7082 25.3958L28.4373 21.125L30.5207 19.0417C30.9582 18.5833 31.6873 18.5833 32.1248 19.0417L34.7915 21.7083C35.2498 22.1458 35.2498 22.875 34.7915 23.3125ZM24.9998 8C27.7357 8 30.4448 8.53887 32.9724 9.58584C35.5 10.6328 37.7967 12.1674 39.7312 14.1019C41.6658 16.0365 43.2004 18.3331 44.2473 20.8608C45.2943 23.3884 45.8332 26.0975 45.8332 28.8333C45.8332 34.3587 43.6382 39.6577 39.7312 43.5647C35.8242 47.4717 30.5252 49.6667 24.9998 49.6667C22.264 49.6667 19.5549 49.1278 17.0273 48.0808C14.4996 47.0339 12.203 45.4993 10.2684 43.5647C6.36144 39.6577 4.1665 34.3587 4.1665 28.8333C4.1665 23.308 6.36144 18.009 10.2684 14.1019C14.1755 10.1949 19.4745 8 24.9998 8Z" fill="black"/>
</g>
<defs>
<filter id="filter0_d_25_4705" x="-4" y="-4.16667" width="58" height="58" filterUnits="userSpaceOnUse" color-interpolation-filters="sRGB">
<feFlood flood-opacity="0" result="BackgroundImageFix"/>
<feColorMatrix in="SourceAlpha" type="matrix" values="0 0 0 0 0 0 0 0 0 0 0 0 0 0 0 0 0 0 127 0" result="hardAlpha"/>
<feOffset dy="-4"/>
<feGaussianBlur stdDeviation="2"/>
<feComposite in2="hardAlpha" operator="out"/>
<feColorMatrix type="matrix" values="0 0 0 0 0.27451 0 0 0 0 0.247059 0 0 0 0 0.227451 0 0 0 0.25 0"/>
<feBlend mode="normal" in2="BackgroundImageFix" result="effect1_dropShadow_25_4705"/>
<feBlend mode="normal" in="SourceGraphic" in2="effect1_dropShadow_25_4705" result="shape"/>
</filter>
</defs>
</svg>
