<svg width="27" height="27" viewBox="0 0 27 27" fill="none" xmlns="http://www.w3.org/2000/svg">
<path d="M22.5 8.35087V20.6831C22.5 21.2006 22.3267 21.633 21.9802 21.9802C21.6338 22.3275 21.201 22.5007 20.682 22.5H6.318C5.79975 22.5 5.36737 22.3267 5.02087 21.9802C4.67437 21.6338 4.50075 21.201 4.5 20.682V6.318C4.5 5.79975 4.67362 5.36737 5.02087 5.02087C5.36812 4.67437 5.8005 4.50075 6.318 4.5H18.6491L22.5 8.35087ZM21.375 8.83125L18.1687 5.625H6.318C6.1155 5.625 5.94937 5.68987 5.81962 5.81962C5.68987 5.94937 5.625 6.1155 5.625 6.318V20.6831C5.625 20.8849 5.68987 21.0506 5.81962 21.1804C5.94937 21.3101 6.1155 21.375 6.318 21.375H20.6831C20.8849 21.375 21.0506 21.3101 21.1804 21.1804C21.3101 21.0506 21.375 20.8845 21.375 20.682V8.83125ZM13.5 18.6053C14.1202 18.6053 14.6505 18.3855 15.0907 17.946C15.531 17.5065 15.7507 16.9762 15.75 16.3553C15.7493 15.7343 15.5291 15.2044 15.0896 14.7656C14.6501 14.3269 14.1202 14.1071 13.5 14.1064C12.8798 14.1056 12.3499 14.3254 11.9104 14.7656C11.4709 15.2059 11.2508 15.7358 11.25 16.3553C11.2492 16.9748 11.4694 17.505 11.9104 17.946C12.3514 18.387 12.8813 18.6068 13.5 18.6053ZM7.61625 10.9913H15.966V7.61625H7.61625V10.9913ZM5.625 8.83125V21.375V5.625V8.83125Z" fill="#6B150F"/>
</svg>
